<mxfile host="app.diagrams.net" modified="2021-07-18T10:12:20.273Z" agent="5.0 (Windows NT 10.0; Win64; x64) AppleWebKit/537.36 (KHTML, like Gecko) Chrome/91.0.4472.124 Safari/537.36" etag="zL9dp7ZaJwdxCVWuT6W8" version="14.9.0" type="github">
  <diagram id="C5RBs43oDa-KdzZeNtuy" name="Page-1">
    <mxGraphModel dx="2489" dy="762" grid="1" gridSize="10" guides="1" tooltips="1" connect="1" arrows="1" fold="1" page="1" pageScale="1" pageWidth="827" pageHeight="1169" math="0" shadow="0">
      <root>
        <mxCell id="WIyWlLk6GJQsqaUBKTNV-0" />
        <mxCell id="WIyWlLk6GJQsqaUBKTNV-1" parent="WIyWlLk6GJQsqaUBKTNV-0" />
        <mxCell id="6NKrDeC7ifxQgwxbEwMk-0" value="" style="shape=folder;fontStyle=1;spacingTop=10;tabWidth=90;tabHeight=20;tabPosition=left;html=1;" vertex="1" parent="WIyWlLk6GJQsqaUBKTNV-1">
          <mxGeometry x="-780" y="430" width="470" height="290" as="geometry" />
        </mxCell>
        <mxCell id="6NKrDeC7ifxQgwxbEwMk-2" value="Coorner1PoolerScript" style="shape=module;align=left;spacingLeft=20;align=center;verticalAlign=top;" vertex="1" parent="WIyWlLk6GJQsqaUBKTNV-1">
          <mxGeometry x="-770" y="460" width="180" height="50" as="geometry" />
        </mxCell>
        <mxCell id="6NKrDeC7ifxQgwxbEwMk-3" value="Coorner2PoolerScript" style="shape=module;align=left;spacingLeft=20;align=center;verticalAlign=top;" vertex="1" parent="WIyWlLk6GJQsqaUBKTNV-1">
          <mxGeometry x="-770" y="520" width="180" height="50" as="geometry" />
        </mxCell>
        <mxCell id="6NKrDeC7ifxQgwxbEwMk-4" value="Coorner3PoolerScript" style="shape=module;align=left;spacingLeft=20;align=center;verticalAlign=top;" vertex="1" parent="WIyWlLk6GJQsqaUBKTNV-1">
          <mxGeometry x="-770" y="580" width="180" height="50" as="geometry" />
        </mxCell>
        <mxCell id="6NKrDeC7ifxQgwxbEwMk-5" value="Coorner4PoolerScript" style="shape=module;align=left;spacingLeft=20;align=center;verticalAlign=top;" vertex="1" parent="WIyWlLk6GJQsqaUBKTNV-1">
          <mxGeometry x="-770" y="640" width="180" height="50" as="geometry" />
        </mxCell>
        <mxCell id="6NKrDeC7ifxQgwxbEwMk-6" value="GroundVerticalPoolerScript" style="shape=module;align=left;spacingLeft=20;align=center;verticalAlign=top;" vertex="1" parent="WIyWlLk6GJQsqaUBKTNV-1">
          <mxGeometry x="-580" y="460" width="180" height="50" as="geometry" />
        </mxCell>
        <mxCell id="6NKrDeC7ifxQgwxbEwMk-7" value="GroundVerticalObstacle1PoolerScript" style="shape=module;align=left;spacingLeft=20;align=center;verticalAlign=top;" vertex="1" parent="WIyWlLk6GJQsqaUBKTNV-1">
          <mxGeometry x="-580" y="520" width="240" height="50" as="geometry" />
        </mxCell>
        <mxCell id="6NKrDeC7ifxQgwxbEwMk-8" value="GroundVerticalObstacle2PoolerScript" style="shape=module;align=left;spacingLeft=20;align=center;verticalAlign=top;" vertex="1" parent="WIyWlLk6GJQsqaUBKTNV-1">
          <mxGeometry x="-580" y="580" width="240" height="50" as="geometry" />
        </mxCell>
        <mxCell id="6NKrDeC7ifxQgwxbEwMk-10" value="GroundEmptyVerticalPoolerScript" style="shape=module;align=left;spacingLeft=20;align=center;verticalAlign=top;" vertex="1" parent="WIyWlLk6GJQsqaUBKTNV-1">
          <mxGeometry x="-580" y="640" width="220" height="50" as="geometry" />
        </mxCell>
        <mxCell id="6NKrDeC7ifxQgwxbEwMk-11" value="Pooler" style="text;html=1;strokeColor=none;fillColor=none;align=center;verticalAlign=middle;whiteSpace=wrap;rounded=0;" vertex="1" parent="WIyWlLk6GJQsqaUBKTNV-1">
          <mxGeometry x="-780" y="430" width="90" height="20" as="geometry" />
        </mxCell>
        <mxCell id="6NKrDeC7ifxQgwxbEwMk-12" value="" style="shape=folder;fontStyle=1;spacingTop=10;tabWidth=80;tabHeight=25;tabPosition=left;html=1;" vertex="1" parent="WIyWlLk6GJQsqaUBKTNV-1">
          <mxGeometry x="-340" y="45" width="230" height="185" as="geometry" />
        </mxCell>
        <mxCell id="6NKrDeC7ifxQgwxbEwMk-13" value="BilocazioneManager" style="shape=module;align=left;spacingLeft=20;align=center;verticalAlign=top;" vertex="1" parent="WIyWlLk6GJQsqaUBKTNV-1">
          <mxGeometry x="-320" y="85" width="150" height="50" as="geometry" />
        </mxCell>
        <mxCell id="6NKrDeC7ifxQgwxbEwMk-14" value="PlayerMovementBilocazione" style="shape=module;align=left;spacingLeft=20;align=center;verticalAlign=top;" vertex="1" parent="WIyWlLk6GJQsqaUBKTNV-1">
          <mxGeometry x="-320" y="155" width="187" height="50" as="geometry" />
        </mxCell>
        <mxCell id="6NKrDeC7ifxQgwxbEwMk-15" value="" style="shape=folder;fontStyle=1;spacingTop=10;tabWidth=80;tabHeight=20;tabPosition=left;html=1;" vertex="1" parent="WIyWlLk6GJQsqaUBKTNV-1">
          <mxGeometry x="-770" y="70" width="210" height="140" as="geometry" />
        </mxCell>
        <mxCell id="6NKrDeC7ifxQgwxbEwMk-21" style="edgeStyle=orthogonalEdgeStyle;rounded=0;orthogonalLoop=1;jettySize=auto;html=1;entryX=0.452;entryY=0.164;entryDx=0;entryDy=0;entryPerimeter=0;" edge="1" parent="WIyWlLk6GJQsqaUBKTNV-1" source="6NKrDeC7ifxQgwxbEwMk-16" target="6NKrDeC7ifxQgwxbEwMk-17">
          <mxGeometry relative="1" as="geometry" />
        </mxCell>
        <mxCell id="6NKrDeC7ifxQgwxbEwMk-16" value="PlayerMovement" style="shape=module;align=left;spacingLeft=20;align=center;verticalAlign=top;" vertex="1" parent="WIyWlLk6GJQsqaUBKTNV-1">
          <mxGeometry x="-750" y="120" width="150" height="50" as="geometry" />
        </mxCell>
        <mxCell id="6NKrDeC7ifxQgwxbEwMk-17" value="" style="shape=folder;fontStyle=1;spacingTop=10;tabWidth=80;tabHeight=20;tabPosition=left;html=1;" vertex="1" parent="WIyWlLk6GJQsqaUBKTNV-1">
          <mxGeometry x="-770" y="250" width="210" height="110" as="geometry" />
        </mxCell>
        <mxCell id="6NKrDeC7ifxQgwxbEwMk-22" style="edgeStyle=orthogonalEdgeStyle;rounded=0;orthogonalLoop=1;jettySize=auto;html=1;entryX=0.506;entryY=0.06;entryDx=0;entryDy=0;entryPerimeter=0;" edge="1" parent="WIyWlLk6GJQsqaUBKTNV-1" source="6NKrDeC7ifxQgwxbEwMk-18" target="6NKrDeC7ifxQgwxbEwMk-0">
          <mxGeometry relative="1" as="geometry">
            <Array as="points">
              <mxPoint x="-675" y="400" />
              <mxPoint x="-542" y="400" />
            </Array>
          </mxGeometry>
        </mxCell>
        <mxCell id="6NKrDeC7ifxQgwxbEwMk-18" value="PlatformSpawnerScript" style="shape=module;align=left;spacingLeft=20;align=center;verticalAlign=top;" vertex="1" parent="WIyWlLk6GJQsqaUBKTNV-1">
          <mxGeometry x="-760" y="290" width="170" height="50" as="geometry" />
        </mxCell>
        <mxCell id="6NKrDeC7ifxQgwxbEwMk-23" value="Bilocazione" style="text;html=1;strokeColor=none;fillColor=none;align=center;verticalAlign=middle;whiteSpace=wrap;rounded=0;" vertex="1" parent="WIyWlLk6GJQsqaUBKTNV-1">
          <mxGeometry x="-340" y="45" width="80" height="25" as="geometry" />
        </mxCell>
      </root>
    </mxGraphModel>
  </diagram>
</mxfile>
